<svg xmlns="http://www.w3.org/2000/svg" xml:space="preserve" width="1.99999in" height="1.99999in" version="1.1" style="shape-rendering:geometricPrecision; text-rendering:geometricPrecision; image-rendering:optimizeQuality; fill-rule:evenodd; clip-rule:evenodd" viewBox="0 0 2000 2000" xmlns:xlink="http://www.w3.org/1999/xlink" transform="scale(-1, 1)">
 <defs>
  <style type="text/css">
   
    .fil0 {fill:#043659}
    .fil1 {fill:#249ECF}
   
  </style>
 </defs>
 <g id="Layer_x0020_1">
  <metadata id="CorelCorpID_0Corel-Layer"></metadata>
  <path class="fil0" d="M1249 1155c-15,0 -28,-5 -38,-15l-37 -38c-5,-4 -7,-10 -7,-16 0,-6 3,-12 7,-17l301 -300c9,-10 24,-10 33,0l37 37c21,20 21,54 0,75l-259 259c-10,10 -23,15 -37,15zm-26 -69l21 21c2,1 4,1 5,1 1,0 2,0 4,-1l259 -259c2,-3 2,-7 0,-9l-21 -21 -268 268zm-147 -92c-6,0 -12,-2 -17,-6l-37 -38c-10,-10 -16,-23 -16,-37 0,-14 6,-27 16,-37l259 -260c20,-19 54,-19 74,0l38 38c4,4 6,10 6,16 0,7 -2,12 -6,17l-301 301c-4,4 -10,6 -16,6zm242 -346c-1,0 -3,0 -4,2l-259 259c-2,1 -2,3 -2,4 0,1 0,3 2,4l21 21 267 -267 -21 -21 0 0c-1,-2 -3,-2 -4,-2z" id="id_101" style="fill: rgb(230, 197, 153);"></path>
  <path class="fil0" d="M1045 908l0 0c-6,0 -12,-2 -16,-6l-70 -70c-9,-9 -9,-24 0,-33l245 -245c9,-9 24,-9 33,0l70 69c4,5 7,11 7,17 0,6 -3,12 -7,16l-245 246c-5,4 -11,6 -17,6zm-36 -92l36 36 212 -212 -36 -37 -212 213z" id="id_102" style="fill: rgb(230, 197, 153);"></path>
  <path class="fil0" d="M932 862c-19,0 -37,-7 -51,-21 -29,-28 -29,-74 0,-102l263 -264c28,-28 74,-28 102,0l0 0c29,29 29,74 0,103l-263 263c-14,14 -33,21 -51,21zm263 -361c-7,0 -13,2 -18,7l-264 264c-10,10 -10,26 0,36 11,10 27,10 37,0l263 -263c11,-10 11,-27 0,-37l0 0c-5,-5 -11,-7 -18,-7z" id="id_103" style="fill: rgb(230, 197, 153);"></path>
  <path class="fil0" d="M1346 1209l0 0c-6,0 -12,-2 -17,-7l-69 -69c-9,-9 -9,-24 0,-33l245 -245c9,-10 24,-10 33,0l70 69c4,4 6,10 6,17 0,6 -2,12 -6,16l-246 245c-4,5 -10,7 -16,7zm-37 -93l37 37 212 -212 -37 -37 -212 212z" id="id_104" style="fill: rgb(230, 197, 153);"></path>
  <path class="fil0" d="M1372 1302c-19,0 -37,-7 -52,-21 -13,-14 -21,-32 -21,-51 0,-20 8,-38 21,-51l264 -264c13,-13 32,-21 51,-21 19,0 38,7 51,21l0 0c28,29 28,74 0,103l-263 263c-14,14 -33,21 -51,21zm263 -361c-7,0 -14,2 -18,7l-264 263c-5,5 -7,12 -7,19 0,7 2,13 7,18 5,5 12,8 19,8l0 0c7,0 13,-3 18,-8l263 -263c10,-10 10,-27 0,-37l0 0c-5,-5 -11,-7 -18,-7z" id="id_105" style="fill: rgb(230, 197, 153);"></path>
  <path class="fil0" d="M1164 1120c-16,0 -31,-6 -42,-18l-63 -62c-23,-24 -23,-62 0,-85l301 -301c11,-11 26,-18 43,-18 16,0 31,7 42,18l63 63c11,11 17,26 17,42 0,16 -6,31 -17,43l-301 300c-12,12 -27,18 -43,18zm238 -437c-3,0 -7,1 -9,4l-301 301c-5,5 -5,14 0,19l63 62c5,6 14,6 19,0l301 -300c2,-3 3,-6 3,-10 0,-4 -1,-7 -3,-10l-63 -62c0,0 0,0 0,0 -3,-3 -6,-4 -10,-4z" id="id_106" style="fill: rgb(230, 197, 153);"></path>
  <path class="fil0" d="M736 1546c-32,0 -63,-12 -85,-35 -47,-47 -47,-123 0,-170l393 -394c9,-9 24,-9 33,0l12 12c8,8 9,21 2,30 -4,5 -3,13 1,18l63 63c5,4 12,5 18,1 9,-7 22,-6 30,2l12 11c9,10 9,24 0,34l-394 393c-23,23 -53,35 -85,35zm308 -533l-360 361c-29,28 -29,75 0,104 14,14 32,21 52,21 20,0 38,-7 52,-21l360 -360c-10,-3 -19,-8 -26,-16l-63 -62c-7,-8 -13,-17 -15,-27z" id="id_107" style="fill: rgb(230, 197, 153);"></path>
  <path class="fil1" d="M1711 1828l-1217 0c-13,0 -24,-11 -24,-24l0 -1608c0,-13 11,-24 24,-24l1217 0c78,0 141,64 141,142l0 1372c0,78 -63,142 -141,142zm-1194 -47l1194 0c52,0 95,-42 95,-95l0 -1372c0,-53 -43,-95 -95,-95l-1194 0 0 1562z" id="id_108" style="fill: rgb(230, 197, 153);"></path>
  <path class="fil1" d="M494 1828l-206 0c-77,0 -140,-63 -140,-141l0 -1374c0,-78 63,-141 140,-141l206 0c13,0 23,11 23,24l0 1609c0,12 -10,23 -23,23zm-206 -1609c-52,0 -94,42 -94,94l0 1374c0,52 42,94 94,94l182 0 0 -1562 -182 0z" id="id_109" style="fill: rgb(230, 197, 153);"></path>
  <path class="fil0" d="M1690 370l-1057 0c-13,0 -23,-11 -23,-24 0,-12 10,-23 23,-23l1057 0c13,0 23,11 23,23 0,13 -10,24 -23,24z" id="id_110" style="fill: rgb(230, 197, 153);"></path>
  <path class="fil0" d="M1690 1677l-1057 0c-13,0 -23,-11 -23,-23 0,-13 10,-24 23,-24l1057 0c13,0 23,11 23,24 0,12 -10,23 -23,23z" id="id_111" style="fill: rgb(230, 197, 153);"></path>
  <path class="fil1" d="M332 1629c-13,0 -23,-10 -23,-23l0 -1212c0,-13 10,-23 23,-23 13,0 24,10 24,23l0 1212c0,13 -11,23 -24,23z" id="id_112" style="fill: rgb(230, 197, 153);"></path>
 </g>
</svg>