<svg xmlns="http://www.w3.org/2000/svg" xml:space="preserve" width="1.70666in" height="1.70666in" version="1.1" style="shape-rendering:geometricPrecision; text-rendering:geometricPrecision; image-rendering:optimizeQuality; fill-rule:evenodd; clip-rule:evenodd" viewBox="0 0 1707 1707" xmlns:xlink="http://www.w3.org/1999/xlink" transform="scale(-1, 1)">
 <defs>
  <style type="text/css">
   
    .fil2 {fill:#8DD7BE}
    .fil1 {fill:#EE52B1}
    .fil0 {fill:#F6A40E}
   
  </style>
 </defs>
 <g id="Layer_x0020_1">
  <metadata id="CorelCorpID_0Corel-Layer"></metadata>
  <path class="fil0" d="M1518 1294l-1091 0c-12,0 -22,-10 -22,-22l0 -1250c0,-12 10,-22 22,-22l1091 0c12,0 22,10 22,22l0 1250c0,12 -10,22 -22,22zm-1069 -44l1047 0 0 -1207 -1047 0 0 1207z" id="id_101" style="fill: rgb(232, 196, 142);"></path>
  <path class="fil0" d="M189 1429c-12,0 -22,-10 -22,-22l0 -1266c0,-78 63,-141 141,-141l119 0c12,0 22,10 22,22l0 1250c0,12 -10,22 -22,22l-103 0c-63,0 -114,50 -114,113 0,12 -10,22 -21,22zm119 -1386c-54,0 -98,44 -98,98l0 1158c29,-30 69,-49 114,-49l81 0 0 -1207 -97 0z" id="id_102" style="fill: rgb(232, 197, 144);"></path>
  <path class="fil1" d="M1518 1564l-630 0c-12,0 -21,-10 -21,-22l0 -113 -117 0 0 113c0,12 -10,22 -22,22l-404 0c-87,0 -157,-71 -157,-157 0,-86 70,-157 157,-157l1194 0c12,0 22,10 22,22l0 270c0,12 -10,22 -22,22zm-608 -44l586 0 0 -226 -1172 0c0,0 0,0 0,0 -31,0 -59,11 -80,33 -22,21 -34,50 -34,80 0,62 51,113 114,113l382 0 0 -113c0,-12 10,-22 22,-22l160 0c12,0 22,10 22,22l0 113 0 0z" id="id_103" style="fill: rgb(224, 183, 121);"></path>
  <path class="fil1" d="M1518 1429l-965 0c-12,0 -21,-10 -21,-22 0,-12 9,-22 21,-22l965 0c12,0 22,10 22,22 0,12 -10,22 -22,22z" id="id_104" style="fill: rgb(230, 197, 153);"></path>
  <path class="fil1" d="M728 1707c-3,0 -7,-1 -10,-3 -7,-4 -12,-11 -12,-19l0 -278c0,-12 10,-22 22,-22l160 0c12,0 22,10 22,22l0 278c0,8 -4,15 -11,19 -7,4 -15,4 -22,0l-73 -44 -64 43c-3,2 -8,4 -12,4zm76 -95c3,0 7,1 11,4l52 31 0 -218 -117 0 0 215 42 -28c3,-2 7,-4 12,-4z" id="id_105" style="fill: rgb(230, 191, 133);"></path>
  <path class="fil2" d="M973 765c-71,0 -138,-22 -188,-62 -58,-46 -89,-111 -92,-189 0,-8 3,-15 9,-19 70,-49 10,-192 10,-193 -2,-5 -3,-10 -1,-15 34,-111 86,-122 107,-122 5,0 8,0 10,1 2,0 5,1 7,3 19,12 38,19 56,19 39,0 64,-34 64,-34 4,-6 11,-9 17,-9 1,0 1,0 1,0 7,0 13,3 17,9 0,0 25,34 65,34 17,0 36,-7 55,-19 2,-2 5,-3 7,-3 2,-1 5,-1 10,-1 21,0 73,11 107,122 2,5 1,10 -1,15 0,1 -60,144 10,193 6,4 9,11 9,19 -3,78 -34,143 -92,189 -50,40 -117,62 -187,62zm-236 -242c10,137 128,199 236,199 107,0 225,-62 235,-199 -74,-65 -31,-197 -18,-230 -24,-74 -53,-84 -61,-85 -25,15 -50,23 -74,23 -38,0 -66,-18 -82,-33 -17,15 -45,33 -82,33 -25,0 -50,-8 -75,-23 -8,1 -37,11 -61,85 13,33 56,165 -18,230z" id="id_106" style="fill: rgb(255, 253, 250);"></path>
  <path class="fil2" d="M1355 910l-765 0c-12,0 -22,-10 -22,-22 0,-12 10,-21 22,-21l765 0c12,0 22,9 22,21 0,12 -10,22 -22,22z" id="id_107" style="fill: rgb(227, 187, 127);"></path>
  <path class="fil2" d="M1355 1105l-765 0c-12,0 -22,-10 -22,-22 0,-12 10,-22 22,-22l765 0c12,0 22,10 22,22 0,12 -10,22 -22,22z" id="id_108" style="fill: rgb(219, 181, 123);"></path>
 </g>
</svg>