<svg version="1.1" xmlns="http://www.w3.org/2000/svg" xmlns:xlink="http://www.w3.org/1999/xlink" x="0px" y="0px" viewBox="0 0 50 50" style="enable-background:new 0 0 50 50;" xml:space="preserve" transform="scale(-1, 1)">
<g id="Layer_1">
	<path d="M9,13H1v31c0,2.757,2.243,5,5,5h38c2.757,0,5-2.243,5-5V1H9V13z M3,44V15h6v29c0,1.654-1.346,3-3,3S3,45.654,3,44z M11,3
		h36v41c0,1.654-1.346,3-3,3H9.998c0.03-0.039,0.051-0.084,0.079-0.124c0.057-0.081,0.107-0.166,0.159-0.251
		c0.106-0.17,0.202-0.345,0.287-0.528c0.045-0.096,0.088-0.193,0.126-0.292c0.075-0.194,0.135-0.393,0.186-0.598
		c0.023-0.094,0.052-0.184,0.07-0.28C10.963,44.626,11,44.318,11,44V13V3z" id="id_101" style="fill: rgb(230, 197, 153);"></path>
	<rect x="15" y="8" width="28" height="2" id="id_102" style="fill: rgb(230, 200, 154);"></rect>
	<rect x="19" y="13" width="20" height="2" id="id_103" style="fill: rgb(235, 203, 155);"></rect>
	<rect x="31" y="21" width="12" height="2" id="id_104" style="fill: rgb(232, 201, 156);"></rect>
	<rect x="31" y="26" width="12" height="2" id="id_105" style="fill: rgb(232, 200, 151);"></rect>
	<path d="M27,21H15v12h12V21z M25,31h-8v-8h8V31z" id="id_106" style="fill: rgb(235, 203, 155);"></path>
	<rect x="31" y="31" width="12" height="2" id="id_107" style="fill: rgb(227, 194, 145);"></rect>
	<rect x="15" y="36" width="12" height="2" id="id_108" style="fill: rgb(224, 191, 141);"></rect>
	<rect x="31" y="36" width="12" height="2" id="id_109" style="fill: rgb(219, 185, 134);"></rect>
	<rect x="15" y="41" width="12" height="2" id="id_110" style="fill: rgb(222, 188, 136);"></rect>
	<rect x="31" y="41" width="12" height="2" id="id_111" style="fill: rgb(219, 184, 131);"></rect>
</g>
<g>
</g>
</svg>