<svg version="1.1" id="Layer_1" xmlns="http://www.w3.org/2000/svg" xmlns:xlink="http://www.w3.org/1999/xlink" x="0px" y="0px" viewBox="0 0 512 512" style="enable-background:new 0 0 512 512;" xml:space="preserve" transform="scale(-1, 1)">
<style type="text/css">
	.st0{fill:#C1E8F7;}
	.st1{fill:#FFDDCA;}
	.st2{fill:#00367C;}
	.st3{fill:#EAEAEA;}
	.st4{fill:#FFE6D3;}
	.st5{fill:#584D46;}
	.st6{fill:#090706;}
	.st7{fill:#212020;}
	.st8{fill:#161413;}
	.st9{fill:#F5EFEE;}
	.st10{fill:#FFFFFF;}
</style>
<circle id="XMLID_8238_" class="st0" cx="256.0887" cy="255.7101" r="248.2249" style="fill: rgb(230, 197, 153);"></circle>
<g id="XMLID_7378_">
	<path id="XMLID_7417_" class="st1" d="M255.122,335.5373c-0.0476,0.1225-0.1495,0.2687-0.2207,0.4001h0.4164
		C255.2464,335.8023,255.1682,335.6635,255.122,335.5373z" style="fill: rgb(0, 0, 0);"></path>
	<path id="XMLID_7416_" class="st1" d="M254.7186,333.9874c0.2289,0.1351,0.3208,0.3226,0.4082,0.5138
		c0.0838-0.1875,0.1613-0.375,0.3728-0.5138c31.0847-20.2982,39.7695-33.0411,43.2525-34.0791
		c-0.7139-3.5956-1.0679-7.0222-1.2292-10.1184c-3.7831,3.3037-7.8181,6.3334-12.1545,8.873
		c-3.7721,2.2077-7.7653,4.0427-11.9297,5.38c-3.7839,1.2166-7.6944,2.015-11.6477,2.4152
		c-4.9116,0.4976-9.9545,0.3459-14.8318-0.4271c-4.0046-0.6364-7.9358-1.7054-11.7097-3.1885
		c-4.2357-1.6636-8.2595-3.8337-12.0427-6.3571c-3.8751-2.5846-7.4563-5.5764-10.8711-8.7398
		c-0.0952,3.266-0.3791,6.979-1.0812,10.9243C213.721,297.2968,218.1682,312.3031,254.7186,333.9874z" style="fill: rgb(232, 224, 211);"></path>
	<path id="XMLID_7415_" class="st2" d="M255.3177,335.9374h-0.4164c-1.4787,2.747-7.7941,7.5626-13.2708,13.0331
		c-0.0506,0.7859-0.0764,1.6131-0.0325,2.5429c0.1975,0.0598,0.3938,0.1155,0.5902,0.1713
		c4.6753,0.7338,13.0873,0.894,13.0873,0.894s5.6952-0.0487,10.2362-0.4271c0.9734-0.2831,1.9719-0.5803,2.9991-0.9029
		c0.0299-0.849,0.0192-1.6349-0.0295-2.3632C263.0146,343.4643,256.7517,338.6952,255.3177,335.9374z"></path>
	<path id="XMLID_7414_" class="st3" d="M216.2687,324.451c13.761,12.3029,26.4939,13.3719,26.3197,16.8594
		c-0.1358,2.7108-0.7748,4.8285-0.9579,7.6601c5.4767-5.4704,11.7921-10.286,13.2708-13.0331
		c0.0712-0.1314,0.1731-0.2776,0.2207-0.4001c0.0461,0.1262,0.1244,0.265,0.1956,0.4001c1.4341,2.7578,7.697,7.5268,13.1637,12.9482
		c-0.1894-2.7917-0.8228-4.8879-0.9572-7.5752c-0.175-3.4875,12.5591-4.5565,26.3201-16.8594
		c9.0587-8.0982,10.6016-14.1467,11.609-16.7549c-1.5555-1.7301-3.293-3.9995-5.1423-7.1263
		c-0.402-0.6814-0.8966-0.8597-1.5588-0.6615c-3.4831,1.038-12.1678,13.7809-43.2525,34.0791
		c-0.2115,0.1388-0.289,0.3263-0.3728,0.5138c-0.0875-0.1912-0.1794-0.3787-0.4082-0.5138
		c-36.5504-21.6842-40.9976-36.6906-43.4641-35.3175c-0.1894,0.1063-0.3695,0.2975-0.55,0.6021
		c-2.1609,3.6588-4.2479,6.2541-6.1079,8.2584C205.604,310.0467,207.0232,316.1871,216.2687,324.451z" style="fill: rgb(250, 250, 250);"></path>
	<path id="XMLID_7413_" class="st4" d="M235.2495,302.8425c3.7739,1.4832,7.7051,2.5521,11.7097,3.1885
		c4.8772,0.7729,9.9202,0.9247,14.8318,0.4271c3.9533-0.4001,7.8638-1.1985,11.6477-2.4152
		c4.1645-1.3373,8.1577-3.1723,11.9297-5.38c4.3365-2.5396,8.3714-5.5693,12.1545-8.873c0.0757-0.0668,0.1602-0.1244,0.2359-0.1912
		c1.2403-1.0904,2.4532-2.2114,3.6411-3.3579c16.5464-15.9761,16.4039-56.3454,20.3982-53.4924
		c9.1288,6.1337,14.9776-12.1243,16.1186-22.9655c0.9442-8.9705-2.2801-13.6262-6.0064-12.3841
		c-1.3336,6.1116-2.9696,12.1892-4.6096,18.5389c-0.7671,2.9704-1.5112,4.3383-4.5698,4.5834
		c-3.9438,0.3174-6.2921-4.1364-6.4346-4.7418c-4.5033-19.2133-10.5311-27.9457-7.4799-46.9357
		c-12.245,10.1834-32.0729,7.1647-47.5266,3.3092c-6.4848-1.6186-25.6394-11.2306-32.5443-21.9149
		c-6.7122,10.014-17.7471,17.7228-28.2188,21.3147c5.6912,14.3361-0.3584,25.536-2.4008,40.8256
		c-0.6965,5.2161-1.3362,10.7242-5.7045,10.6773c-3.4576-0.038-5.7694-4.1076-6.9037-7.3736
		c-2.0737-5.9732-3.4904-11.919-4.6015-17.948c-4.0382-2.2044-7.79,2.4621-6.7805,12.049
		c1.1406,10.8412,6.9894,29.0992,16.1186,22.9655c3.9947-2.853,3.8515,37.5164,20.3982,53.4924
		c0.5415,0.5227,1.1317,0.9933,1.6832,1.5049c3.4148,3.1634,6.996,6.1552,10.8711,8.7398
		C226.9899,299.0088,231.0137,301.1788,235.2495,302.8425z"></path>
	<path id="XMLID_7412_" class="st5" d="M192.4214,223.0555c4.3682,0.0469,5.0079-5.4612,5.7045-10.6773
		c2.0424-15.2895,8.0919-26.4895,2.4008-40.8256c10.4717-3.5919,21.5067-11.3008,28.2188-21.3147
		c6.9048,10.6843,26.0595,20.2963,32.5443,21.9149c15.4538,3.8555,35.2816,6.8742,47.5266-3.3092
		c-3.0512,18.99,2.9766,27.7224,7.4799,46.9357c0.1425,0.6054,2.4908,5.0592,6.4346,4.7418
		c3.0586-0.2451,3.8027-1.6131,4.5698-4.5834c1.64-6.3497,3.276-12.4273,4.6096-18.5389
		c1.4492-6.6417,2.5414-13.3232,2.8585-20.4425c0.4415-9.9077,0.2669-21.7743-2.7559-31.2206
		c-5.9802-18.6962-21.3491-31.6912-39.025-40.2272c-20.7765-10.0335-51.5593-10.7618-64.3967,11.29
		c-0.6604,1.1339-1.3336,2.3613-2.4953,2.9685c-0.8091,0.4219-12.8537-2.8548-18.6644-1.9501
		c-7.6032,1.1823-15.8085,6.3478-20.1125,12.0073c-3.6337,4.7765-6.9266,11.8902-8.4061,17.7121
		c-2.7378,10.7762-1.9224,22.6809-0.4813,33.7059c0.7335,5.6181,1.4879,11.0863,2.4846,16.4917
		c1.1111,6.0289,2.5278,11.9748,4.6015,17.948C186.652,218.9478,188.9638,223.0174,192.4214,223.0555z" style="fill: rgb(0, 0, 0);"></path>
	<path id="XMLID_7411_" class="st6" d="M312.0436,483.0664c-1.6625-4.16,8.6423-107.3182,12.0397-142.6176
		c-4.5147-4.5528-7.2895-10.5747-7.2895-17.2056c0-2.8655,0.536-5.6125,1.485-8.1879c-1.6688-0.045-2.9836,0.045-3.9245,0.2683
		c0.2883,2.1413-4.2158,14.0784-14.4893,22.0737c-10.6655,8.3016-31.3929,15.0518-31.3494,14.1917
		c0.0063-0.1241-0.0092-0.2178-0.0048-0.3403c-1.0273,0.3226-2.0258,0.6198-2.9991,0.9029
		c1.6573-0.1388,3.1652-0.3208,4.1789-0.5625c3.8869-1.0037,10.0121-1.2776,10.8567,0.7482
		c0.8442,2.0258,4.8968,13.3394,3.8839,25.1592c-1.0129,11.8201,0,15.0282,1.351,24.3157c1.351,9.2875,3.7145,23.4723,3.208,42.3844
		c-0.5064,18.9106-0.3377,26.6788,1.8575,34.4471c2.1952,7.7664,2.1952,10.131,0,10.468
		c-1.7788,0.2739-8.3522,1.2237-11.3484,1.1805c0.0701,4.1346,0.1403,8.354,0.2108,12.6167
		c8.6216-0.7589,17.1159-1.9449,25.4619-3.5632C306.1454,489.2054,308.3162,484.4868,312.0436,483.0664z"></path>
	<path id="XMLID_7410_" class="st6" d="M342.3458,485.5536c2.9117,0.1063,5.8901,0.1462,8.8848,0.0886
		c0.1513-0.0613,0.3056-0.1174,0.457-0.1805C348.5334,485.5211,345.3955,485.5536,342.3458,485.5536z"></path>
	<path id="XMLID_7409_" class="st6" d="M377.9165,388.644c0.2876-7.9771,0.9236-15.5365,2.2077-21.8537
		c2.2432-11.0394,4.4439-18.2037,6.1389-22.7097c-0.0631-0.0162-0.1251-0.0343-0.189-0.045l-0.3182-0.3839
		c0.1746,0.1277,0.3496,0.2539,0.5253,0.3802c1.8486-4.9042,3.0885-6.6346,3.0885-6.6346c0.6803,0.1786,1.375,0.3245,2.0771,0.4562
		c-3.1767-3.2103-10.3122-6.6941-19.0446-9.9527c-0.8121,4.0408-2.6621,7.739-5.2836,10.8788
		C369.5905,349.8139,373.635,368.4359,377.9165,388.644z"></path>
	<path id="XMLID_7408_" class="st6" d="M233.9848,490.6003c-0.3163-0.2307-0.5415-0.4776-0.5415-0.7604v-0.0018
		c-0.0144,0.292-0.0244,0.474-0.0244,0.474c-2.1457,0-10.8718-0.8615-13.0663-1.2004c-2.1952-0.337-2.1952-2.7016,0-10.468
		c2.1945-7.7682,2.3639-15.5365,1.8563-34.4471c-0.5064-18.9121,1.8585-33.0968,3.2092-42.3844
		c1.351-9.2875,2.3639-12.4956,1.351-24.3157c-1.0129-11.8198,3.0386-23.1334,3.8832-25.1592
		c0.6578-1.5773,4.5628-1.7519,8.0971-1.2816c-6.0215-1.7607-20.2524-7.2363-28.5016-13.6584
		c-10.1745-7.9177-14.693-19.7087-14.4992-22.0139c-10.014-2.3901-66.3092,11.5691-77.2172,22.4409
		c0.6545-0.1259,1.3034-0.2613,1.9386-0.4271c0,0,1.2399,1.7304,3.0885,6.6346c0.1757-0.1263,0.3503-0.2525,0.526-0.3802
		l-0.3189,0.3839c-0.0639,0.0107-0.1262,0.0288-0.1894,0.045c1.6943,4.5059,3.8961,11.6703,6.1408,22.7097
		c4.7034,23.1423,0.8804,62.7693,2.0095,79.7099c0.2381,3.5757,0.5083,11.9748,0.8102,23.5461
		c30.252,17.7029,64.5592,29.2088,101.221,32.7162C233.8346,498.6535,233.9103,494.5891,233.9848,490.6003z"></path>
	<path id="XMLID_7407_" class="st6" d="M241.598,351.5134c0.0011,0.0292-0.0026,0.0487-0.0007,0.0757
		c0.1857,0.0343,0.3902,0.0649,0.591,0.0956C241.9919,351.6289,241.7955,351.5732,241.598,351.5134z"></path>
	<path id="XMLID_7403_" class="st7" d="M391.4467,337.8536c-0.7021-0.1318-1.3968-0.2776-2.0771-0.4562
		c0,0-1.2399,1.7304-3.0885,6.6346c0.0351,0.0251,0.0705,0.0506,0.1056,0.0775c9.4219,1.4942,18.3625,5.9064,25.243,12.5137
		c6.958,6.6833,11.7828,15.5527,13.6115,25.0259c-1.1273,0.7678-2.7297,0.4308-3.802-0.4146
		c-1.0716-0.8434-1.7404-2.0852-2.3982-3.2823c-4.1534-7.55-8.8405-15.7742-15.5885-21.1778
		c-5.6011-4.486-11.3413-8.4836-17.0657-12.665c-0.0413-0.0074-0.083-0.0181-0.1237-0.0288
		c-1.695,4.5059-3.8957,11.6703-6.1389,22.7097c-1.2842,6.3172-1.9202,13.8765-2.2077,21.8537
		c5.7332,27.0591,11.8722,56.8718,15.212,75.0434c25.2854-16.5006,47.3723-37.4658,65.142-61.8066
		c-11.939-27.0827-24.2101-45.791-30.6122-53.0384C417.0566,336.8477,402.8856,340.0056,391.4467,337.8536z M395.3624,385.4359
		c-0.4352,0.0377-0.7298-0.4237-0.9021-0.8239c-1.0875-2.5447-1.485-5.3187-2.0907-8.0185
		c-1.3975-6.2308-3.9626-11.6344-6.6812-17.1802l-1.6924-2.884c0.1938,0.1731,0.3614,0.375,0.5522,0.5533
		c-0.1244-0.254-0.2458-0.5028-0.371-0.7586c0.2683,0.3315,0.4758,0.7047,0.6866,1.0742
		c7.1787,6.9048,11.3727,16.8339,11.1837,26.7992C396.0375,384.7169,395.8799,385.3909,395.3624,385.4359z M412.5094,419.4899
		c-1.3204,0.2632-1.0553-3.0748-1.2148-4.9134c-0.3174-3.6443-1.9257-12.5155-3.2993-16.3205
		c-6.5984-18.2724-4.4797-23.043-11.9489-36.6367c5.4992,5.1423,5.7576,12.6743,10.3635,18.6275
		c0.914,0.7047-0.0457-3.3055-0.7154-4.706c-1.6481-3.4499-1.9239-5.1567-3.1693-8.7719c-0.715-2.0763-2.1539-4.5114-3.3816-6.339
		c-0.6153-0.9176-1.6426-1.8818-2.3871-2.6891c0.0218,0.0233-1.4879-1.5411-1.0121-1.4078c0.64,0.1783,1.1177,0.6976,1.5592,1.193
		c4.0083,4.5078,6.3497,7.9812,9.1063,13.4694c1.9781,3.9363,4.9009,10.358,5.7299,14.6856
		c0.8121,4.2408,1.0561,6.1278,1.5843,11.726c0.3846,4.0737,0.8379,7.8188,0.8165,13.6676
		C414.5325,413.196,414.5883,419.0735,412.5094,419.4899z"></path>
	<path id="XMLID_7402_" d="M386.0741,344.0357c0.0639,0.0107,0.1259,0.0288,0.189,0.045c0.0406,0.0107,0.0823,0.0214,0.1237,0.0288
		c-0.0351-0.0269-0.0705-0.0524-0.1056-0.0775c-0.1757-0.1263-0.3507-0.2525-0.5253-0.3802L386.0741,344.0357z"></path>
	<path id="XMLID_7401_" d="M403.4525,356.7745c6.748,5.4036,11.4351,13.6277,15.5885,21.1778
		c0.6578,1.1971,1.3267,2.4388,2.3982,3.2823c1.0723,0.8453,2.6747,1.1823,3.802,0.4146
		c-1.8286-9.4732-6.6535-18.3426-13.6115-25.0259c-6.8805-6.6073-15.821-11.0195-25.243-12.5137
		C392.1112,348.2909,397.8514,352.2885,403.4525,356.7745z"></path>
	<path id="XMLID_7400_" d="M384.8638,357.3983c-0.2108-0.3695-0.4182-0.7427-0.6866-1.0742
		c0.1251,0.2558,0.2466,0.5046,0.371,0.7586c-0.1909-0.1783-0.3584-0.3802-0.5522-0.5533l1.6924,2.884
		c2.7186,5.5457,5.2836,10.9493,6.6812,17.1802c0.6057,2.6998,1.0033,5.4738,2.0907,8.0185
		c0.1724,0.4001,0.4669,0.8615,0.9021,0.8239c0.5175-0.045,0.6751-0.7191,0.6851-1.2384
		C396.2365,374.2323,392.0425,364.3032,384.8638,357.3983z"></path>
	<path id="XMLID_7399_" d="M412.1399,385.6811c-0.829-4.3276-3.7518-10.7493-5.7299-14.6856
		c-2.7566-5.4881-5.098-8.9616-9.1063-13.4694c-0.4415-0.4954-0.9191-1.0147-1.5592-1.193
		c-0.4758-0.1333,1.0339,1.4311,1.0121,1.4078c0.7445,0.8073,1.7718,1.7714,2.3871,2.6891c1.2277,1.8275,2.6666,4.2627,3.3816,6.339
		c1.2454,3.6152,1.5211,5.322,3.1693,8.7719c0.6696,1.4005,1.6293,5.4106,0.7154,4.706
		c-4.6059-5.9532-4.8643-13.4852-10.3635-18.6275c7.4692,13.5938,5.3505,18.3643,11.9489,36.6367
		c1.3735,3.8049,2.9818,12.6761,3.2993,16.3205c0.1595,1.8386-0.1056,5.1766,1.2148,4.9134
		c2.0789-0.4164,2.0232-6.2939,2.0313-8.4153c0.0214-5.8488-0.4319-9.5939-0.8165-13.6676
		C413.196,391.8089,412.9519,389.9219,412.1399,385.6811z"></path>
	<path id="XMLID_7395_" class="st7" d="M129.7171,366.7903c-2.2446-11.0394-4.4465-18.2037-6.1408-22.7097
		c-0.0402,0.0107-0.0819,0.0214-0.1233,0.0288c-5.7233,4.1814-11.4657,8.179-17.0657,12.665
		c-6.7472,5.4036-11.4351,13.6277-15.5885,21.1778c-0.6581,1.1971-1.3266,2.4388-2.3982,3.2823
		c-1.0723,0.8453-2.6739,1.1823-3.802,0.4146c1.8283-9.4732,6.6535-18.3426,13.6115-25.0259
		c6.8812-6.6073,15.821-11.0195,25.243-12.5137c0.0351-0.0255,0.0701-0.0506,0.1056-0.0775
		c-1.8486-4.9042-3.0885-6.6346-3.0885-6.6346c-0.6353,0.1657-1.2842,0.3012-1.9386,0.4271
		c-11.4628,2.2044-25.7051-1.0273-36.3492,11.018c-6.0164,6.8092-17.2189,23.7949-28.454,48.2819
		c20.6119,29.6725,47.5222,54.6135,78.8085,72.9221c-0.3019-11.5713-0.5721-19.9704-0.8102-23.5461
		C130.5975,429.5596,134.4205,389.9326,129.7171,366.7903z M98.5453,414.5765c-0.1595,1.8386,0.1063,5.1766-1.2148,4.9134
		c-2.0782-0.4164-2.0232-6.2939-2.0313-8.4153c-0.0218-5.8488,0.4326-9.5939,0.8165-13.6676
		c0.5282-5.5981,0.7722-7.4851,1.5843-11.726c0.8291-4.3276,3.7514-10.7493,5.7296-14.6856
		c2.7577-5.4881,5.0991-8.9616,9.1067-13.4694c0.4415-0.4954,0.9191-1.0147,1.5599-1.193c0.4758-0.1333-1.0347,1.4311-1.0129,1.4078
		c-0.7445,0.8073-1.7718,1.7714-2.3875,2.6891c-1.2273,1.8275-2.6666,4.2627-3.3812,6.339
		c-1.2443,3.6152-1.5201,5.322-3.1693,8.7719c-0.6689,1.4005-1.6293,5.4106-0.7157,4.706
		c4.607-5.9532,4.8647-13.4852,10.3639-18.6275c-7.4692,13.5938-5.3497,18.3643-11.9482,36.6367
		C100.4721,402.0609,98.8624,410.9321,98.5453,414.5765z M115.3792,384.6121c-0.1709,0.4001-0.4666,0.8615-0.901,0.8239
		c-0.5182-0.045-0.6759-0.7191-0.6858-1.2384c-0.1894-9.9653,4.005-19.8943,11.1845-26.7992
		c0.2111-0.3695,0.4175-0.7427,0.6858-1.0742c-0.1251,0.2558-0.2458,0.5046-0.3713,0.7586
		c0.1912-0.1783,0.3588-0.3802,0.5526-0.5533l-1.6924,2.884c-2.719,5.5457-5.2825,10.9493-6.6815,17.1802
		C116.8646,379.2933,116.467,382.0673,115.3792,384.6121z"></path>
	<path id="XMLID_7394_" d="M98.2101,356.6232c-6.958,6.6833-11.7832,15.5527-13.6115,25.0259
		c1.128,0.7678,2.7297,0.4308,3.802-0.4146c1.0716-0.8434,1.7401-2.0852,2.3982-3.2823c4.1534-7.55,8.8413-15.7742,15.5885-21.1778
		c5.6-4.486,11.3425-8.4836,17.0657-12.665C114.0312,345.6037,105.0913,350.0159,98.2101,356.6232z"></path>
	<path id="XMLID_7393_" d="M123.5763,344.0807c0.0631-0.0162,0.1255-0.0343,0.1894-0.045l0.3189-0.3839
		c-0.1757,0.1277-0.3503,0.2539-0.526,0.3802c-0.0354,0.0269-0.0705,0.052-0.1056,0.0775
		C123.4944,344.1021,123.5361,344.0914,123.5763,344.0807z"></path>
	<path id="XMLID_7392_" d="M124.1514,359.4134l1.6924-2.884c-0.1938,0.1731-0.3614,0.375-0.5526,0.5533
		c0.1255-0.254,0.2462-0.5028,0.3713-0.7586c-0.2683,0.3315-0.4747,0.7047-0.6858,1.0742
		c-7.1795,6.9048-11.3738,16.8339-11.1845,26.7992c0.01,0.5193,0.1676,1.1934,0.6858,1.2384
		c0.4345,0.0377,0.7301-0.4237,0.901-0.8239c1.0878-2.5447,1.4854-5.3187,2.0907-8.0185
		C118.8689,370.3627,121.4325,364.9591,124.1514,359.4134z"></path>
	<path id="XMLID_7391_" d="M103.4295,380.2468c-0.9136,0.7047,0.0469-3.3055,0.7157-4.706c1.6493-3.4499,1.925-5.1567,3.1693-8.7719
		c0.7146-2.0763,2.1538-4.5114,3.3812-6.339c0.6157-0.9176,1.643-1.8818,2.3875-2.6891c-0.0218,0.0233,1.4887-1.5411,1.0129-1.4078
		c-0.6408,0.1783-1.1184,0.6976-1.5599,1.193c-4.0076,4.5078-6.3489,7.9812-9.1067,13.4694
		c-1.9781,3.9363-4.9005,10.358-5.7296,14.6856c-0.8121,4.2408-1.0561,6.1278-1.5843,11.726
		c-0.3839,4.0737-0.8383,7.8188-0.8165,13.6676c0.0081,2.1213-0.0469,7.9989,2.0313,8.4153
		c1.3211,0.2632,1.0553-3.0748,1.2148-4.9134c0.3171-3.6443,1.9268-12.5155,3.3-16.3205
		c6.5985-18.2724,4.479-23.043,11.9482-36.6367C108.2942,366.7616,108.0366,374.2935,103.4295,380.2468z"></path>
	<path id="XMLID_7390_" class="st8" d="M342.3458,485.5536c3.0497,0,6.1876-0.0325,9.3418-0.0919
		c0.4352-0.1783,0.8796-0.337,1.3137-0.5172c-4.3265,0.3171-8.7756,0.4921-12.1523,0.5478
		C341.3466,485.5141,341.843,485.5355,342.3458,485.5536z"></path>
	<path id="XMLID_7389_" class="st8" d="M324.0833,340.4489c-3.3974,35.2994-13.7023,138.4575-12.0397,142.6176h0.0007
		c1.1284-0.4289,10.9279,1.2455,23.3254,2.1143c-2.0715-4.9097-0.4208-95.3257,0.3237-137.7137
		C331.1901,346.0452,327.2176,343.6082,324.0833,340.4489z" style="fill: rgb(255, 255, 255);"></path>
	<path id="XMLID_7388_" class="st8" d="M377.9165,388.644c-4.2815-20.2081-8.326-38.8301-10.798-49.8643
		c-3.3856,4.0537-8.0495,7.1573-13.4572,8.7955c4.1541,37.8408,11.6927,114.0754,13.3427,131.0123
		c9.0369-4.4409,17.7479-9.4333,26.1244-14.9001C389.7886,445.5158,383.6497,415.7031,377.9165,388.644z" style="fill: rgb(255, 255, 255);"></path>
	<path id="XMLID_7387_" class="st7" d="M344.8396,348.8911c-3.2073,0-6.2758-0.5172-9.1462-1.4241
		c-0.7445,42.3881-2.3952,132.804-0.3237,137.7137c1.7792,0.124,3.6111,0.2289,5.4793,0.3116
		c3.3767-0.0557,7.8258-0.2307,12.1523-0.5478c4.7458-1.9756,9.4112-4.1006,14.0027-6.3571
		c-1.65-16.9369-9.1886-93.1715-13.3427-131.0123C350.8848,348.4172,347.9251,348.8911,344.8396,348.8911z" style="fill: rgb(252, 252, 252);"></path>
	<path id="XMLID_7386_" d="M324.0833,340.4489c3.1342,3.1593,7.1068,5.5963,11.6101,7.0182
		c2.8703,0.907,5.9388,1.4241,9.1462,1.4241c3.0855,0,6.0452-0.474,8.8217-1.3159c5.4077-1.6382,10.0716-4.7418,13.4572-8.7955
		c2.6215-3.1398,4.4716-6.838,5.2836-10.8788c0.3038-1.5123,0.4839-3.0641,0.4839-4.6576c0-14.1629-12.5561-25.6457-28.0464-25.6457
		c-12.3546,0-22.8208,7.3138-26.5607,17.4577c-0.949,2.5754-1.485,5.3224-1.485,8.1879
		C316.7939,329.8742,319.5686,335.8961,324.0833,340.4489z" style="fill: rgb(255, 255, 255);"></path>
	<path id="XMLID_7385_" class="st9" d="M342.3458,485.5536c-0.5027-0.0181-0.9992-0.0395-1.4968-0.0613
		c-1.8681-0.0827-3.7001-0.1875-5.4793-0.3116c-12.3974-0.8689-22.197-2.5432-23.3254-2.1143h-0.0007
		c-3.7274,1.4204-5.8982,6.1389-6.8716,16.2791c15.9539-3.091,31.3531-7.7143,46.0586-13.7034
		C348.2359,485.6998,345.2574,485.6599,342.3458,485.5536z" style="fill: rgb(255, 255, 255);"></path>
	<path id="XMLID_7384_" d="M210.2479,337.3973c8.2492,6.422,22.4801,11.8976,28.5016,13.6584
		c1.0048,0.1332,1.9863,0.3119,2.8478,0.5334c-0.0018-0.0269,0.0018-0.0465,0.0007-0.0757
		c-0.0439-0.9298-0.0181-1.757,0.0325-2.5429c0.1831-2.8315,0.8221-4.9492,0.9579-7.6601
		c0.1742-3.4875-12.5587-4.5565-26.3197-16.8594c-9.2455-8.2639-10.6647-14.4043-11.6721-16.9207
		c-0.23-0.5747-0.4389-0.9623-0.7139-1.141c-1.4824-0.966-6.7904,5.9931-8.0853,8.7036c-0.0318,0.065-0.0399,0.1786-0.0487,0.2905
		C195.5549,317.6887,200.0734,329.4796,210.2479,337.3973z" style="fill: rgb(255, 255, 255);"></path>
	<path id="XMLID_7383_" d="M293.8443,324.451c-13.761,12.3029-26.495,13.3719-26.3201,16.8594
		c0.1344,2.6872,0.7678,4.7835,0.9572,7.5752c0.0487,0.7283,0.0594,1.5142,0.0295,2.3632
		c-0.0044,0.1225,0.0111,0.2163,0.0048,0.3403c-0.0436,0.86,20.6839-5.8901,31.3494-14.1917
		c10.2735-7.9952,14.7776-19.9324,14.4893-22.0737c-0.0111-0.0808-0.0137-0.1783-0.0388-0.2307
		c-1.296-2.7105-6.604-9.6696-8.0853-8.7036c-0.2994,0.1949-0.5231,0.6452-0.777,1.3067
		C304.4459,310.3043,302.903,316.3528,293.8443,324.451z" style="fill: rgb(255, 255, 255);"></path>
	<path id="XMLID_7382_" class="st8" d="M278.0664,490.0994c-2.4964,3.2929-22.4668,2.5573-22.4668,2.5573
		s-18.3551,0.3156-21.6148-2.0564c-0.0746,3.9888-0.1502,8.0532-0.227,12.1623c7.879,0.7552,15.8565,1.1716,23.9326,1.1716
		c7.426,0,14.7598-0.3876,22.0197-1.0254c-0.0705-4.2627-0.1406-8.4821-0.2108-12.6167
		C278.8161,490.2832,278.2691,490.2345,278.0664,490.0994z" style="fill: rgb(0, 0, 0);"></path>
	<path id="XMLID_7381_" class="st9" d="M242.1883,351.6847c-0.2008-0.0306-0.4053-0.0613-0.591-0.0956
		c1.031,0.2669-2.1638,1.0852-4.8654,69.9805c-0.6031,15.3619-3.0279,63.1425-3.2885,68.2685v0.0018
		c0,0.2828,0.2252,0.5297,0.5415,0.7604c3.2598,2.372,21.6148,2.0564,21.6148,2.0564s19.9704,0.7357,22.4668-2.5573l-0.0288-0.0074
		c0,0-2.9327-52.2828-3.5687-68.5225c-2.702-68.8953-5.8093-69.7136-4.7783-69.9805c-1.0136,0.2418-2.5215,0.4237-4.1789,0.5625
		c-4.541,0.3784-10.2362,0.4271-10.2362,0.4271S246.8636,352.4185,242.1883,351.6847z" style="fill: rgb(8, 8, 8);"></path>
	<path id="XMLID_7380_" class="st10" d="M236.7319,421.5695c2.7016-68.8953,5.8964-69.7136,4.8654-69.9805
		c-0.8615-0.2215-1.843-0.4001-2.8478-0.5334c-3.5344-0.4703-7.4393-0.2957-8.0971,1.2816
		c-0.8445,2.0258-4.8961,13.3394-3.8832,25.1592c1.0129,11.8201,0,15.0282-1.351,24.3157
		c-1.3506,9.2875-3.7156,23.4723-3.2092,42.3844c0.5075,18.9106,0.3381,26.6788-1.8563,34.4471
		c-2.1952,7.7664-2.1952,10.131,0,10.468c2.1945,0.3389,10.9206,1.2004,13.0663,1.2004c0,0,0.01-0.182,0.0244-0.474
		C233.7039,484.712,236.1287,436.9314,236.7319,421.5695z" style="fill: rgb(13, 13, 13);"></path>
	<path id="XMLID_7379_" class="st10" d="M274.4689,421.5695c0.636,16.2397,3.5687,68.5225,3.5687,68.5225l0.0288,0.0074
		c0.2026,0.1351,0.7497,0.1838,1.433,0.1927c2.9962,0.0432,9.5695-0.9066,11.3484-1.1805c2.1952-0.337,2.1952-2.7016,0-10.468
		c-2.1952-7.7682-2.3639-15.5365-1.8575-34.4471c0.5064-18.9121-1.8571-33.0968-3.208-42.3844
		c-1.351-9.2875-2.3639-12.4956-1.351-24.3157c1.0129-11.8198-3.0397-23.1334-3.8839-25.1592
		c-0.8446-2.0258-6.9698-1.7519-10.8567-0.7482C268.6597,351.856,271.767,352.6743,274.4689,421.5695z" style="fill: rgb(0, 0, 0);"></path>
</g>
</svg>